<svg width="14" height="14" viewBox="0 0 14 14" fill="none" xmlns="http://www.w3.org/2000/svg">
<g clip-path="url(#clip0_291_764)">
<path fill-rule="evenodd" clip-rule="evenodd" d="M7 0.5625C7.24162 0.5625 7.4375 0.758375 7.4375 1V3.77712L8.69064 2.52398C8.8615 2.35312 9.1385 2.35312 9.30936 2.52398C9.48021 2.69483 9.48021 2.97184 9.30936 3.1427L7.30936 5.14269C7.22731 5.22474 7.11603 5.27084 7 5.27084C6.88397 5.27084 6.77269 5.22474 6.69064 5.14269L4.69064 3.14269C4.51979 2.97184 4.51979 2.69483 4.69064 2.52398C4.8615 2.35312 5.1385 2.35312 5.30936 2.52398L6.5625 3.77712V1C6.5625 0.758375 6.75838 0.5625 7 0.5625ZM2.52398 4.52398C2.69484 4.35312 2.97185 4.35312 3.1427 4.52398L5.1427 6.52398C5.22475 6.60602 5.27084 6.7173 5.27084 6.83334C5.27084 6.94937 5.22475 7.06065 5.1427 7.1427L3.1427 9.1427C2.97185 9.31355 2.69484 9.31355 2.52398 9.1427C2.35313 8.97184 2.35313 8.69483 2.52398 8.52398L3.77712 7.27084L1 7.27084C0.758375 7.27084 0.5625 7.07496 0.5625 6.83334C0.5625 6.59171 0.758375 6.39584 1 6.39584L3.77713 6.39584L2.52398 5.14269C2.35313 4.97184 2.35313 4.69483 2.52398 4.52398ZM10.6906 4.52398C10.8615 4.35312 11.1385 4.35312 11.3094 4.52398C11.4802 4.69483 11.4802 4.97184 11.3094 5.14269L10.0562 6.39584L12.8333 6.39584C13.075 6.39584 13.2708 6.59171 13.2708 6.83334C13.2708 7.07496 13.075 7.27084 12.8333 7.27084L10.0562 7.27084L11.3094 8.52398C11.4802 8.69483 11.4802 8.97184 11.3094 9.1427C11.1385 9.31355 10.8615 9.31355 10.6906 9.1427L8.69064 7.1427C8.60859 7.06065 8.5625 6.94937 8.5625 6.83334C8.5625 6.7173 8.60859 6.60602 8.69064 6.52398L10.6906 4.52398ZM7 8.39584C7.11603 8.39584 7.22731 8.44193 7.30936 8.52398L9.30936 10.524C9.48021 10.6948 9.48021 10.9718 9.30936 11.1427C9.1385 11.3136 8.8615 11.3135 8.69064 11.1427L7.4375 9.88955L7.4375 12.6667C7.4375 12.9083 7.24162 13.1042 7 13.1042C6.75838 13.1042 6.5625 12.9083 6.5625 12.6667L6.5625 9.88955L5.30936 11.1427C5.1385 11.3135 4.8615 11.3135 4.69064 11.1427C4.51979 10.9718 4.51979 10.6948 4.69064 10.524L6.69064 8.52398C6.77269 8.44193 6.88397 8.39584 7 8.39584Z" fill="black"/>
</g>
<defs>
<clipPath id="clip0_291_764">
<rect width="14" height="14" fill="white"/>
</clipPath>
</defs>
</svg>
