<svg width="14" height="14" viewBox="0 0 14 14" fill="none" xmlns="http://www.w3.org/2000/svg">
<g clip-path="url(#clip0_96_394)">
<path d="M7 14C5.61553 14 4.26215 13.5895 3.11101 12.8203C1.95987 12.0511 1.06266 10.9579 0.532846 9.67879C0.00303296 8.3997 -0.13559 6.99224 0.134506 5.63437C0.404603 4.2765 1.07129 3.02922 2.05026 2.05026C3.02922 1.07129 4.2765 0.404603 5.63437 0.134506C6.99224 -0.13559 8.3997 0.00303296 9.67879 0.532846C10.9579 1.06266 12.0511 1.95987 12.8203 3.11101C13.5895 4.26215 14 5.61553 14 7C14 8.85652 13.2625 10.637 11.9497 11.9497C10.637 13.2625 8.85652 14 7 14ZM7 1.16667C5.84628 1.16667 4.71846 1.50879 3.75918 2.14976C2.79989 2.79074 2.05222 3.70178 1.61071 4.76768C1.16919 5.83358 1.05367 7.00647 1.27876 8.13803C1.50384 9.26958 2.05941 10.309 2.87521 11.1248C3.69102 11.9406 4.73042 12.4962 5.86198 12.7212C6.99353 12.9463 8.16642 12.8308 9.23232 12.3893C10.2982 11.9478 11.2093 11.2001 11.8502 10.2408C12.4912 9.28154 12.8333 8.15373 12.8333 7C12.8333 5.45291 12.2188 3.96918 11.1248 2.87521C10.0308 1.78125 8.5471 1.16667 7 1.16667Z" fill="#212121"/>
<path fill-rule="evenodd" clip-rule="evenodd" d="M7.16761 3.69445C5.72926 3.69445 4.50405 4.61345 4.04999 5.8981C3.94263 6.20185 3.60936 6.36106 3.30561 6.2537C3.00186 6.14634 2.84265 5.81307 2.95001 5.50931C3.56368 3.7731 5.21946 2.52778 7.16761 2.52778C9.11575 2.52778 10.7715 3.7731 11.3852 5.50931C11.4926 5.81307 11.3334 6.14634 11.0296 6.2537C10.7259 6.36106 10.3926 6.20185 10.2852 5.8981C9.83116 4.61345 8.60595 3.69445 7.16761 3.69445ZM3.30561 7.74631C3.60936 7.63895 3.94263 7.79816 4.04999 8.10191C4.50405 9.38656 5.72926 10.3056 7.16761 10.3056C8.60595 10.3056 9.83116 9.38656 10.2852 8.10191C10.3926 7.79816 10.7259 7.63895 11.0296 7.74631C11.3334 7.85367 11.4926 8.18694 11.3852 8.49069C10.7715 10.2269 9.11575 11.4722 7.16761 11.4722C5.21946 11.4722 3.56368 10.2269 2.95001 8.49069C2.84265 8.18694 3.00186 7.85367 3.30561 7.74631Z" fill="#212121"/>
</g>
<defs>
<clipPath id="clip0_96_394">
<rect width="14" height="14" fill="white"/>
</clipPath>
</defs>
</svg>
