<svg width="36" height="36" viewBox="0 0 36 36" fill="none" xmlns="http://www.w3.org/2000/svg">
	<g>
		<path d="M14.337 8.42003C14.7012 7.9578 15.1718 7.59052 15.7087 7.34947C16.2455 7.10841 16.8327 7.00075 17.4201 7.03567C18.0076 7.07059 18.5778 7.24704 19.0824 7.54999C19.5869 7.85295 20.0106 8.27343 20.3175 8.77555C24.1592 7.61115 28.1434 6.9827 32.157 6.90804C30.5305 4.82452 28.4641 3.12571 26.1054 1.93285C23.7466 0.739988 21.1537 0.0824941 18.5115 0.00727428C15.8694 -0.0679455 13.2432 0.440974 10.8204 1.49771C8.39757 2.55444 6.2379 4.13293 4.49548 6.12054C7.84985 6.52683 11.1499 7.29789 14.337 8.42003Z" fill="#17D4A7"/>
		<path d="M33.2325 8.42453L32.175 8.45153C28.3096 8.52794 24.473 9.13357 20.772 10.2515C20.7766 10.325 20.7766 10.3986 20.772 10.4721C20.7725 11.3031 20.4646 12.1049 19.908 12.7221C21.0968 14.3683 22.1979 16.0762 23.2065 17.8386C23.6475 18.6096 24.0555 19.3686 24.4305 20.1156H24.615C25.0976 20.1111 25.5696 20.2574 25.965 20.5341C28.998 17.9511 31.689 14.4815 34.038 10.1255L34.11 9.99503" fill="#17D4A7"/>
		<path d="M18.657 13.6176C18.1991 13.8138 17.7061 13.9148 17.2079 13.9145C16.6998 13.9167 16.1969 13.8121 15.7317 13.6074C15.2666 13.4028 14.8496 13.1026 14.5079 12.7265C9.97193 15.0215 5.22899 18.6575 2.01599 24.4265C4.20179 25.2578 6.49099 25.7862 8.81998 25.9971C9.00217 25.6351 9.28211 25.3314 9.62808 25.1204C9.97405 24.9095 10.3722 24.7996 10.7774 24.8034C11.1826 24.8071 11.5787 24.9243 11.9207 25.1416C12.2627 25.359 12.537 25.6678 12.7124 26.033H12.906C16.2969 25.7736 19.5826 24.7373 22.5089 23.0045C22.4205 22.7748 22.3748 22.5308 22.374 22.2846C22.3745 21.9984 22.433 21.7153 22.5459 21.4523C22.6588 21.1894 22.8238 20.952 23.0309 20.7545C21.7593 18.2662 20.2969 15.8801 18.657 13.6176Z" fill="#17D4A7"/>
		<path d="M26.1225 33.8721C26.5095 30.8031 25.8165 27.5271 24.6555 24.4221H24.6285C24.2346 24.4225 23.8473 24.3218 23.5035 24.1295C20.3085 26.0928 16.6904 27.2638 12.951 27.545H12.7575C12.5931 27.945 12.3127 28.2866 11.9524 28.5257C11.5921 28.7649 11.1685 28.8906 10.7361 28.8867C10.3036 28.8828 9.88231 28.7496 9.52636 28.504C9.17041 28.2584 8.89614 27.9119 8.73897 27.5091C6.40223 27.3148 4.10192 26.8093 1.89899 26.006C2.95752 28.1253 4.42394 30.0149 6.21425 31.5662C8.00456 33.1176 10.0835 34.3003 12.3319 35.0466C14.5802 35.7928 16.9537 36.0879 19.3164 35.9149C21.679 35.7419 23.9843 35.1043 26.0999 34.0386L26.1225 33.8721Z" fill="#17D4A7"/>
		<path d="M34.8795 11.7591C32.8004 15.5378 30.0723 18.9209 26.82 21.7535C26.8657 21.9222 26.8883 22.0963 26.8875 22.2711C26.8853 22.5833 26.815 22.8913 26.6813 23.1734C26.5476 23.4556 26.3538 23.7051 26.1135 23.9046C27.369 27.2526 27.9135 30.3351 27.738 33.125C31.186 30.9116 33.774 27.5862 35.0729 23.7002C36.3718 19.8142 36.3035 15.601 34.8795 11.7591Z" fill="#17D4A7"/>
		<path d="M13.752 11.372C13.6091 10.8729 13.5875 10.3467 13.689 9.83753C10.3474 8.67387 6.88154 7.90368 3.36157 7.54254C1.73869 9.80755 0.664901 12.419 0.225195 15.1705C-0.214512 17.922 -0.00808613 20.7381 0.828069 23.396C3.74407 18.2975 8.12255 14.2205 13.752 11.372Z" fill="#17D4A7"/>
	</g>
</svg>
