<svg width="20" height="20" viewBox="0 0 20 20" fill="none" xmlns="http://www.w3.org/2000/svg">
<g clip-path="url(#clip0_5369_5262)">
<path d="M8.53711 2.64453C9.9919 2.3552 11.4997 2.50366 12.8701 3.07129C14.2405 3.63893 15.4122 4.59972 16.2363 5.83301C17.0604 7.06633 17.5 8.5167 17.5 10C17.5 11.9891 16.7102 13.8972 15.3037 15.3037C13.8972 16.7102 11.9891 17.5 10 17.5C8.51664 17.5 7.06638 17.0604 5.83301 16.2363C4.59969 15.4122 3.63893 14.2405 3.07129 12.8701C2.7732 12.1505 2.59155 11.3929 2.52734 10.625H0.833008C0.667474 10.6249 0.508713 10.5594 0.391602 10.4424C0.274391 10.3252 0.208008 10.1658 0.208008 10C0.208058 9.83434 0.274479 9.67575 0.391602 9.55859C0.508735 9.44146 0.667365 9.37509 0.833008 9.375H2.52637C2.54982 9.09463 2.58927 8.81493 2.64453 8.53711C2.93388 7.08244 3.64761 5.7461 4.69629 4.69727C5.74518 3.64837 7.08225 2.93392 8.53711 2.64453ZM10 3.75C8.76387 3.75 7.55515 4.11695 6.52734 4.80371C5.4997 5.49046 4.69858 6.46649 4.22559 7.6084C3.99071 8.17544 3.84297 8.77089 3.78223 9.375H5.83301C5.99877 9.375 6.15818 9.44138 6.27539 9.55859C6.39241 9.67574 6.45796 9.83442 6.45801 10C6.45801 10.1658 6.3926 10.3252 6.27539 10.4424C6.15819 10.5596 5.99874 10.625 5.83301 10.625H3.78223C3.80221 10.8239 3.83089 11.0225 3.87012 11.2197C4.1113 12.432 4.70703 13.5459 5.58105 14.4199C6.45497 15.2937 7.56825 15.8887 8.78027 16.1299C9.9926 16.371 11.2496 16.2474 12.3916 15.7744C13.5335 15.3014 14.5095 14.5003 15.1963 13.4727C15.883 12.4448 16.25 11.2361 16.25 10C16.25 8.34246 15.591 6.75311 14.4189 5.58105C13.2469 4.40901 11.6576 3.75 10 3.75Z" fill="#17233a"/>
<path d="M9.375 5.8335L9.375 0.833496C9.375 0.667736 9.44085 0.508764 9.55806 0.391554C9.67527 0.274344 9.83424 0.208496 10 0.208496C10.1658 0.208496 10.3247 0.274344 10.4419 0.391554C10.5592 0.508765 10.625 0.667736 10.625 0.833496L10.625 5.8335C10.625 5.99926 10.5592 6.15823 10.4419 6.27544C10.3247 6.39265 10.1658 6.4585 10 6.4585C9.83424 6.4585 9.67527 6.39265 9.55806 6.27544C9.44085 6.15823 9.375 5.99926 9.375 5.8335Z" fill="#17233a"/>
<path d="M19.1666 10.625H14.1666C14.0009 10.625 13.8419 10.5592 13.7247 10.4419C13.6075 10.3247 13.5416 10.1658 13.5416 10C13.5416 9.83424 13.6075 9.67527 13.7247 9.55806C13.8419 9.44085 14.0009 9.375 14.1666 9.375H19.1666C19.3324 9.375 19.4914 9.44085 19.6086 9.55806C19.7258 9.67527 19.7916 9.83424 19.7916 10C19.7916 10.1658 19.7258 10.3247 19.6086 10.4419C19.4914 10.5592 19.3324 10.625 19.1666 10.625Z" fill="#17233a"/>
<path d="M9.375 19.1665L9.375 14.1665C9.375 14.0007 9.44085 13.8418 9.55806 13.7246C9.67527 13.6074 9.83424 13.5415 10 13.5415C10.1658 13.5415 10.3247 13.6074 10.4419 13.7246C10.5592 13.8418 10.625 14.0007 10.625 14.1665L10.625 19.1665C10.625 19.3323 10.5592 19.4912 10.4419 19.6084C10.3247 19.7257 10.1658 19.7915 10 19.7915C9.83424 19.7915 9.67527 19.7257 9.55806 19.6084C9.44085 19.4912 9.375 19.3323 9.375 19.1665Z" fill="#17233a"/>
</g>
<defs>
<clipPath id="clip0_5369_5262">
<rect width="20" height="20" fill="white"/>
</clipPath>
</defs>
</svg>
