<svg width="119" height="24" viewBox="0 0 119 24" fill="none" xmlns="http://www.w3.org/2000/svg">
<g clip-path="url(#clip0_552_8948)">
<path d="M9.55804 5.61335C9.80085 5.3052 10.1146 5.06035 10.4725 4.89964C10.8304 4.73894 11.2218 4.66717 11.6134 4.69045C12.0051 4.71373 12.3853 4.83136 12.7216 5.03333C13.0579 5.2353 13.3404 5.51562 13.545 5.85037C16.1062 5.0741 18.7623 4.65514 21.438 4.60536C20.3537 3.21634 18.9761 2.08381 17.4036 1.28857C15.8311 0.493326 14.1025 0.0549961 12.341 0.00484952C10.5796 -0.045297 8.82879 0.293982 7.2136 0.998472C5.5984 1.70296 4.15862 2.75529 2.99701 4.08036C5.23325 4.35122 7.4333 4.86526 9.55804 5.61335Z" fill="#17D4A7"/>
<path d="M22.155 5.61633L21.45 5.63433C18.8731 5.68527 16.3153 6.08903 13.848 6.83433C13.8511 6.88328 13.8511 6.9324 13.848 6.98135C13.8483 7.53541 13.6431 8.06989 13.272 8.48135C14.0646 9.57883 14.7986 10.7174 15.471 11.8924C15.765 12.4064 16.037 12.9124 16.287 13.4104H16.41C16.7318 13.4074 17.0464 13.5049 17.31 13.6893C19.332 11.9673 21.126 9.65434 22.692 6.75034L22.74 6.66333" fill="#17D4A7"/>
<path d="M12.438 9.07839C12.1327 9.20923 11.804 9.27659 11.4719 9.27638C11.1332 9.27783 10.7979 9.20807 10.4878 9.07163C10.1777 8.93519 9.89976 8.73512 9.67195 8.48438C6.64795 10.0144 3.48599 12.4384 1.34399 16.2844C2.80119 16.8385 4.32733 17.1908 5.87999 17.3314C6.00145 17.0901 6.18807 16.8876 6.41872 16.747C6.64937 16.6063 6.9148 16.5331 7.18494 16.5356C7.45508 16.5381 7.71913 16.6162 7.94713 16.7611C8.17514 16.906 8.35797 17.1119 8.47495 17.3554H8.60397C10.8646 17.1824 13.0551 16.4916 15.0059 15.3364C14.947 15.1832 14.9165 15.0205 14.916 14.8564C14.9163 14.6656 14.9553 14.4769 15.0306 14.3016C15.1059 14.1263 15.2159 13.968 15.354 13.8364C14.5062 12.1775 13.5313 10.5868 12.438 9.07839Z" fill="#17D4A7"/>
<path d="M17.415 22.5814C17.673 20.5354 17.211 18.3514 16.437 16.2814H16.419C16.1564 16.2817 15.8982 16.2145 15.669 16.0864C13.539 17.3952 11.1269 18.1759 8.63397 18.3634H8.50499C8.39541 18.63 8.20847 18.8577 7.96827 19.0172C7.72808 19.1766 7.44565 19.2604 7.15737 19.2578C6.8691 19.2552 6.5882 19.1664 6.3509 19.0027C6.1136 18.839 5.93076 18.6079 5.82598 18.3394C4.26815 18.2098 2.73461 17.8728 1.26599 17.3374C1.97168 18.7502 2.9493 20.0099 4.14283 21.0442C5.33637 22.0784 6.72235 22.8669 8.22125 23.3644C9.72015 23.8619 11.3025 24.0586 12.8776 23.9433C14.4527 23.828 15.9895 23.4029 17.4 22.6924L17.415 22.5814Z" fill="#17D4A7"/>
<path d="M23.253 7.83936C21.8669 10.3585 20.0482 12.6139 17.88 14.5023C17.9105 14.6148 17.9256 14.7309 17.925 14.8474C17.9236 15.0555 17.8766 15.2608 17.7875 15.4489C17.6984 15.6371 17.5692 15.8034 17.409 15.9364C18.246 18.1684 18.609 20.2233 18.492 22.0833C20.7907 20.6077 22.516 18.3908 23.3819 15.8001C24.2479 13.2094 24.2024 10.4006 23.253 7.83936Z" fill="#17D4A7"/>
<path d="M9.16801 7.58139C9.07269 7.2486 9.05829 6.89785 9.12601 6.55837C6.89825 5.7826 4.58768 5.26914 2.24103 5.02838C1.1591 6.53839 0.443247 8.27937 0.150109 10.1137C-0.143028 11.948 -0.0054111 13.8254 0.552026 15.5974C2.49602 12.1984 5.41501 9.48039 9.16801 7.58139Z" fill="#17D4A7"/>
<path d="M40.7439 11.6113V16.8126C40.5394 17.059 40.224 17.3264 39.7972 17.6149C39.3708 17.8973 38.8206 18.1407 38.1475 18.3451C37.4744 18.5494 36.6603 18.6515 35.7047 18.6515C34.8574 18.6515 34.0851 18.5133 33.388 18.2369C32.6909 17.9544 32.09 17.5428 31.5852 17.0019C31.0864 16.461 30.7017 15.8 30.4313 15.0187C30.1608 14.2315 30.0256 13.3331 30.0256 12.3234V11.5031C30.0256 10.4935 30.1549 9.59508 30.4133 8.80781C30.6777 8.02053 31.0533 7.35647 31.5401 6.81562C32.0269 6.27473 32.6068 5.86308 33.2798 5.58065C33.9529 5.29819 34.7011 5.15696 35.5244 5.15696C36.6663 5.15696 37.6036 5.34328 38.3369 5.71587C39.0702 6.08244 39.6288 6.59327 40.0136 7.24832C40.4042 7.89736 40.6446 8.64254 40.7347 9.48387H38.1117C38.0456 9.03917 37.9193 8.65155 37.7328 8.32101C37.5468 7.99051 37.2794 7.73209 36.9309 7.54577C36.5882 7.3595 36.1434 7.26634 35.5966 7.26634C35.1458 7.26634 34.7432 7.3595 34.3886 7.54577C34.0401 7.72607 33.7456 7.9935 33.5052 8.34808C33.2648 8.70265 33.0815 9.14133 32.9553 9.66416C32.8291 10.187 32.766 10.794 32.766 11.4851V12.3234C32.766 13.0085 32.8321 13.6155 32.9643 14.1443C33.0966 14.6672 33.2919 15.1089 33.5503 15.4695C33.8147 15.824 34.1392 16.0915 34.5239 16.2717C34.9085 16.452 35.3562 16.5422 35.867 16.5422C36.2937 16.5422 36.6482 16.5061 36.9309 16.434C37.2192 16.3619 37.4504 16.2748 37.6247 16.1726C37.8052 16.0644 37.9433 15.9622 38.0393 15.8661V13.5404H35.5695V11.6113H40.7439ZM45.5033 4.62512V18.4713H42.8984V4.62512H45.5033ZM47.2343 13.6936V13.5043C47.2343 12.7892 47.3362 12.1311 47.5407 11.5301C47.7449 10.9232 48.0425 10.3973 48.4332 9.95264C48.8238 9.50794 49.3045 9.16238 49.8754 8.91599C50.4462 8.66358 51.1012 8.53738 51.8404 8.53738C52.5796 8.53738 53.238 8.66358 53.8147 8.91599C54.3918 9.16238 54.8755 9.50794 55.2661 9.95264C55.6627 10.3973 55.9632 10.9232 56.1674 11.5301C56.372 12.1311 56.4739 12.7892 56.4739 13.5043V13.6936C56.4739 14.4028 56.372 15.0608 56.1674 15.6678C55.9632 16.2687 55.6627 16.7946 55.2661 17.2453C54.8755 17.69 54.3948 18.0356 53.8236 18.282C53.2527 18.5284 52.5977 18.6515 51.8585 18.6515C51.1193 18.6515 50.4613 18.5284 49.8846 18.282C49.3134 18.0356 48.8297 17.69 48.4332 17.2453C48.0425 16.7946 47.7449 16.2687 47.5407 15.6678C47.3362 15.0608 47.2343 14.4028 47.2343 13.6936ZM49.8303 13.5043V13.6936C49.8303 14.1023 49.8665 14.4839 49.9385 14.8385C50.0105 15.193 50.125 15.5055 50.2812 15.776C50.4432 16.0404 50.6537 16.2477 50.9122 16.3979C51.1706 16.5482 51.486 16.6233 51.8585 16.6233C52.2192 16.6233 52.5287 16.5482 52.7871 16.3979C53.0456 16.2477 53.2527 16.0404 53.4089 15.776C53.5655 15.5055 53.6796 15.193 53.7516 14.8385C53.8298 14.4839 53.869 14.1023 53.869 13.6936V13.5043C53.869 13.1077 53.8298 12.7351 53.7516 12.3865C53.6796 12.032 53.5621 11.7194 53.4 11.449C53.2439 11.1726 53.0364 10.9562 52.7779 10.8C52.5198 10.6437 52.2071 10.5656 51.8404 10.5656C51.4741 10.5656 51.1614 10.6437 50.9029 10.8C50.6508 10.9562 50.4432 11.1726 50.2812 11.449C50.125 11.7194 50.0105 12.032 49.9385 12.3865C49.8665 12.7351 49.8303 13.1077 49.8303 13.5043ZM58.0693 4.62512H60.6658V16.2357L60.4044 18.4713H58.0693V4.62512ZM66.8404 13.4953V13.6846C66.8404 14.4118 66.7625 15.0788 66.6063 15.6858C66.456 16.2928 66.2216 16.8186 65.9029 17.2633C65.5847 17.702 65.1877 18.0446 64.7133 18.291C64.2444 18.5314 63.6916 18.6515 63.0543 18.6515C62.4595 18.6515 61.9426 18.5314 61.5039 18.291C61.0712 18.0506 60.7079 17.711 60.4132 17.2723C60.1189 16.8336 59.8815 16.3198 59.701 15.7309C59.5208 15.1419 59.3856 14.4989 59.2955 13.8018V13.3871C59.3856 12.69 59.5208 12.047 59.701 11.458C59.8815 10.8691 60.1189 10.3553 60.4132 9.91657C60.7079 9.47789 61.0712 9.13834 61.5039 8.89793C61.9367 8.65757 62.4477 8.53738 63.0366 8.53738C63.6794 8.53738 64.2384 8.66056 64.7133 8.90694C65.194 9.14735 65.5906 9.48989 65.9029 9.93459C66.2216 10.3733 66.456 10.8961 66.6063 11.5031C66.7625 12.1041 66.8404 12.7681 66.8404 13.4953ZM64.2444 13.6846V13.4953C64.2444 13.0987 64.2144 12.7261 64.1543 12.3775C64.1 12.023 64.004 11.7135 63.8659 11.449C63.7274 11.1786 63.5384 10.9653 63.298 10.809C63.0636 10.6527 62.76 10.5746 62.3875 10.5746C62.033 10.5746 61.7325 10.6347 61.4858 10.7549C61.2396 10.8751 61.0354 11.0434 60.8729 11.2597C60.7167 11.4761 60.5997 11.7345 60.5214 12.035C60.4435 12.3295 60.3951 12.654 60.377 13.0085V14.1894C60.3951 14.6642 60.4734 15.0848 60.6115 15.4514C60.7559 15.812 60.9722 16.0975 61.2606 16.3078C61.5552 16.5121 61.9367 16.6143 62.4056 16.6143C62.7719 16.6143 63.0754 16.5422 63.3157 16.3979C63.5565 16.2537 63.7426 16.0494 63.8748 15.785C64.0128 15.5205 64.1092 15.211 64.1631 14.8565C64.2174 14.4959 64.2444 14.1053 64.2444 13.6846ZM73.7184 16.2717V11.9268C73.7184 11.6143 73.6675 11.3469 73.5652 11.1245C73.4633 10.8961 73.3038 10.7189 73.0874 10.5927C72.8773 10.4665 72.6037 10.4034 72.2674 10.4034C71.9786 10.4034 71.7294 10.4544 71.5189 10.5566C71.3088 10.6527 71.1464 10.794 71.0323 10.9803C70.9182 11.1606 70.861 11.3739 70.861 11.6203H68.2649C68.2649 11.2056 68.3609 10.812 68.5533 10.4394C68.7456 10.0668 69.0252 9.7393 69.3918 9.45684C69.7581 9.1684 70.1938 8.94302 70.6989 8.78074C71.2095 8.6185 71.7803 8.53738 72.4114 8.53738C73.1687 8.53738 73.8418 8.66358 74.4307 8.91599C75.0196 9.1684 75.4823 9.54697 75.819 10.0518C76.1616 10.5566 76.3326 11.1876 76.3326 11.9448V16.1185C76.3326 16.6534 76.3658 17.0921 76.4319 17.4346C76.498 17.7711 76.594 18.0656 76.7203 18.318V18.4713H74.0973C73.971 18.2068 73.8746 17.8763 73.8085 17.4797C73.7487 17.077 73.7184 16.6744 73.7184 16.2717ZM74.0611 12.5308L74.0792 14.0001H72.6277C72.2851 14.0001 71.9879 14.0392 71.7353 14.1173C71.4831 14.1954 71.2756 14.3066 71.1135 14.4508C70.9511 14.589 70.8311 14.7513 70.7528 14.9376C70.6808 15.1239 70.6446 15.3282 70.6446 15.5506C70.6446 15.7729 70.6956 15.9743 70.7978 16.1546C70.9001 16.3289 71.0474 16.4671 71.2394 16.5692C71.4318 16.6654 71.6574 16.7134 71.9155 16.7134C72.3061 16.7134 72.6458 16.6353 72.9342 16.4791C73.2229 16.3228 73.4452 16.1305 73.6014 15.9022C73.7635 15.6738 73.8477 15.4574 73.8539 15.2531L74.5389 16.3529C74.4429 16.5993 74.3103 16.8547 74.1423 17.1191C73.9799 17.3835 73.7727 17.6329 73.5202 17.8673C73.268 18.0957 72.9645 18.285 72.6096 18.4352C72.2552 18.5794 71.8346 18.6515 71.3476 18.6515C70.7288 18.6515 70.1668 18.5284 69.6621 18.282C69.1632 18.0296 68.7667 17.684 68.472 17.2453C68.1837 16.8006 68.0393 16.2958 68.0393 15.7309C68.0393 15.2201 68.1357 14.7663 68.328 14.3697C68.5204 13.9731 68.8025 13.6395 69.1754 13.3691C69.5539 13.0927 70.0258 12.8853 70.5907 12.7471C71.1556 12.6029 71.8106 12.5308 72.5557 12.5308H74.0611ZM81.0743 4.62512V18.4713H78.4693V4.62512H81.0743ZM85.8159 10.5927V22.2213H83.2199V8.71768H85.6265L85.8159 10.5927ZM91.9909 13.4863V13.6756C91.9909 14.3847 91.9067 15.0428 91.7384 15.6498C91.5763 16.2567 91.3359 16.7856 91.0173 17.2363C90.6986 17.681 90.3021 18.0296 89.8272 18.282C89.3587 18.5284 88.8178 18.6515 88.2048 18.6515C87.6096 18.6515 87.0931 18.5314 86.6541 18.291C86.2154 18.0506 85.8458 17.7141 85.5456 17.2814C85.251 16.8427 85.0136 16.3348 84.8334 15.7579C84.6532 15.181 84.5147 14.562 84.4187 13.9009V13.4052C84.5147 12.696 84.6532 12.047 84.8334 11.458C85.0136 10.8631 85.251 10.3493 85.5456 9.91657C85.8458 9.47789 86.2125 9.13834 86.6452 8.89793C87.0839 8.65757 87.5978 8.53738 88.1868 8.53738C88.8056 8.53738 89.3494 8.65457 89.8184 8.88893C90.2932 9.12331 90.6898 9.45983 91.008 9.89855C91.3326 10.3372 91.5763 10.8601 91.7384 11.467C91.9067 12.074 91.9909 12.7471 91.9909 13.4863ZM89.3856 13.6756V13.4863C89.3856 13.0716 89.3495 12.69 89.2775 12.3415C89.2114 11.9869 89.1032 11.6774 88.9529 11.413C88.8085 11.1485 88.6165 10.9442 88.3762 10.8C88.1417 10.6498 87.8563 10.5746 87.5196 10.5746C87.1651 10.5746 86.8616 10.6317 86.609 10.7459C86.3627 10.8601 86.1615 11.0254 86.0053 11.2417C85.8488 11.458 85.7317 11.7165 85.6538 12.0169C85.5755 12.3174 85.5275 12.657 85.5095 13.0356V14.2886C85.5394 14.7333 85.6235 15.1329 85.7616 15.4875C85.9001 15.836 86.1135 16.1125 86.4019 16.3168C86.6903 16.5211 87.0691 16.6233 87.5376 16.6233C87.8803 16.6233 88.1687 16.5482 88.4031 16.3979C88.6376 16.2417 88.8266 16.0284 88.971 15.7579C89.1213 15.4875 89.2265 15.175 89.2863 14.8204C89.3524 14.4659 89.3856 14.0843 89.3856 13.6756ZM96.3449 8.71768V18.4713H93.7396V8.71768H96.3449ZM93.5772 6.1756C93.5772 5.79699 93.7097 5.48447 93.9741 5.23808C94.2384 4.99169 94.5929 4.86848 95.0378 4.86848C95.4765 4.86848 95.828 4.99169 96.0923 5.23808C96.3626 5.48447 96.4981 5.79699 96.4981 6.1756C96.4981 6.55421 96.3626 6.86669 96.0923 7.11307C95.828 7.3595 95.4765 7.48267 95.0378 7.48267C94.5929 7.48267 94.2384 7.3595 93.9741 7.11307C93.7097 6.86669 93.5772 6.55421 93.5772 6.1756ZM101.032 10.8V18.4713H98.4362V8.71768H100.87L101.032 10.8ZM100.654 13.2519H99.9504C99.9504 12.5308 100.043 11.8817 100.23 11.3048C100.416 10.7219 100.678 10.2261 101.014 9.81743C101.351 9.40275 101.75 9.08724 102.213 8.87091C102.682 8.64856 103.205 8.53738 103.782 8.53738C104.238 8.53738 104.656 8.60347 105.035 8.7357C105.413 8.86792 105.738 9.07823 106.008 9.36671C106.285 9.65515 106.495 10.0368 106.639 10.5115C106.789 10.9863 106.865 11.5662 106.865 12.2513V18.4713H104.25V12.2423C104.25 11.8096 104.19 11.4731 104.07 11.2327C103.95 10.9923 103.773 10.824 103.538 10.7279C103.31 10.6257 103.028 10.5746 102.691 10.5746C102.342 10.5746 102.039 10.6437 101.78 10.782C101.528 10.9202 101.318 11.1125 101.149 11.3589C100.987 11.5993 100.864 11.8817 100.78 12.2062C100.696 12.5308 100.654 12.8793 100.654 13.2519ZM115.014 8.71768H117.366V18.1468C117.366 19.0362 117.168 19.7904 116.771 20.4094C116.381 21.0344 115.834 21.5061 115.131 21.8246C114.428 22.1491 113.61 22.3114 112.679 22.3114C112.27 22.3114 111.837 22.2573 111.381 22.1491C110.93 22.041 110.498 21.8727 110.083 21.6443C109.674 21.416 109.331 21.1275 109.055 20.779L110.2 19.2465C110.5 19.5951 110.849 19.8655 111.246 20.0578C111.642 20.2561 112.081 20.3553 112.562 20.3553C113.03 20.3553 113.427 20.2681 113.752 20.0939C114.076 19.9256 114.326 19.6762 114.5 19.3457C114.674 19.0211 114.761 18.6275 114.761 18.1648V10.9713L115.014 8.71768ZM108.451 13.7116V13.5223C108.451 12.7771 108.541 12.1011 108.722 11.4941C108.908 10.8811 109.169 10.3553 109.506 9.91657C109.848 9.47789 110.263 9.13834 110.75 8.89793C111.237 8.65757 111.786 8.53738 112.399 8.53738C113.049 8.53738 113.592 8.65757 114.031 8.89793C114.47 9.13834 114.83 9.48088 115.113 9.92558C115.395 10.3643 115.615 10.8841 115.771 11.4851C115.933 12.08 116.059 12.7321 116.149 13.4412V13.8559C116.059 14.535 115.924 15.166 115.744 15.7489C115.563 16.3318 115.326 16.8427 115.032 17.2814C114.737 17.7141 114.371 18.0506 113.932 18.291C113.499 18.5314 112.982 18.6515 112.381 18.6515C111.781 18.6515 111.237 18.5284 110.75 18.282C110.269 18.0356 109.857 17.69 109.515 17.2453C109.172 16.8006 108.908 16.2778 108.722 15.6768C108.541 15.0758 108.451 14.4208 108.451 13.7116ZM111.047 13.5223V13.7116C111.047 14.1143 111.086 14.4899 111.164 14.8385C111.243 15.187 111.363 15.4965 111.525 15.7669C111.693 16.0314 111.901 16.2387 112.147 16.3889C112.399 16.5331 112.697 16.6053 113.039 16.6053C113.514 16.6053 113.902 16.5061 114.202 16.3078C114.503 16.1035 114.728 15.824 114.878 15.4695C115.029 15.1149 115.116 14.7062 115.14 14.2435V13.0626C115.128 12.684 115.077 12.3444 114.987 12.044C114.897 11.7375 114.77 11.4761 114.608 11.2597C114.446 11.0434 114.235 10.8751 113.977 10.7549C113.719 10.6347 113.412 10.5746 113.057 10.5746C112.715 10.5746 112.418 10.6527 112.165 10.809C111.919 10.9592 111.711 11.1666 111.543 11.431C111.381 11.6954 111.258 12.0079 111.174 12.3685C111.089 12.7231 111.047 13.1077 111.047 13.5223Z" fill="white"/>
</g>
<defs>
<clipPath id="clip0_552_8948">
<rect width="118.523" height="24" fill="white"/>
</clipPath>
</defs>
</svg>
