<svg width="178" height="36" viewBox="0 0 178 36" fill="none" xmlns="http://www.w3.org/2000/svg">
<g clip-path="url(#clip0_573_5860)">
<path d="M14.337 8.42003C14.7012 7.9578 15.1718 7.59052 15.7087 7.34947C16.2455 7.10841 16.8327 7.00075 17.4201 7.03567C18.0076 7.07059 18.5778 7.24704 19.0824 7.54999C19.5869 7.85295 20.0106 8.27343 20.3175 8.77555C24.1592 7.61115 28.1434 6.9827 32.157 6.90804C30.5305 4.82452 28.4641 3.12571 26.1054 1.93285C23.7466 0.739988 21.1537 0.0824941 18.5115 0.00727428C15.8694 -0.0679455 13.2432 0.440974 10.8204 1.49771C8.39757 2.55444 6.2379 4.13293 4.49548 6.12054C7.84985 6.52683 11.1499 7.29789 14.337 8.42003Z" fill="#17D4A7"/>
<path d="M33.2325 8.42453L32.175 8.45153C28.3096 8.52794 24.473 9.13357 20.772 10.2515C20.7766 10.325 20.7766 10.3986 20.772 10.4721C20.7725 11.3031 20.4646 12.1049 19.908 12.7221C21.0968 14.3683 22.1979 16.0762 23.2065 17.8386C23.6475 18.6096 24.0555 19.3686 24.4305 20.1156H24.615C25.0976 20.1111 25.5696 20.2574 25.965 20.5341C28.998 17.9511 31.689 14.4815 34.038 10.1255L34.11 9.99503" fill="#17D4A7"/>
<path d="M18.657 13.6176C18.1991 13.8138 17.7061 13.9148 17.2079 13.9145C16.6998 13.9167 16.1969 13.8121 15.7317 13.6074C15.2666 13.4028 14.8496 13.1026 14.5079 12.7265C9.97193 15.0215 5.22899 18.6575 2.01599 24.4265C4.20179 25.2578 6.49099 25.7862 8.81998 25.9971C9.00217 25.6351 9.28211 25.3314 9.62808 25.1204C9.97405 24.9095 10.3722 24.7996 10.7774 24.8034C11.1826 24.8071 11.5787 24.9243 11.9207 25.1416C12.2627 25.359 12.537 25.6678 12.7124 26.033H12.906C16.2969 25.7736 19.5826 24.7373 22.5089 23.0045C22.4205 22.7748 22.3748 22.5308 22.374 22.2846C22.3745 21.9984 22.433 21.7153 22.5459 21.4523C22.6588 21.1894 22.8238 20.952 23.0309 20.7545C21.7593 18.2662 20.2969 15.8801 18.657 13.6176Z" fill="#17D4A7"/>
<path d="M26.1225 33.8721C26.5095 30.8031 25.8165 27.5271 24.6555 24.4221H24.6285C24.2346 24.4225 23.8473 24.3218 23.5035 24.1295C20.3085 26.0928 16.6904 27.2638 12.951 27.545H12.7575C12.5931 27.945 12.3127 28.2866 11.9524 28.5257C11.5921 28.7649 11.1685 28.8906 10.7361 28.8867C10.3036 28.8828 9.88231 28.7496 9.52636 28.504C9.17041 28.2584 8.89614 27.9119 8.73897 27.5091C6.40223 27.3148 4.10192 26.8093 1.89899 26.006C2.95752 28.1253 4.42394 30.0149 6.21425 31.5662C8.00456 33.1176 10.0835 34.3003 12.3319 35.0466C14.5802 35.7928 16.9537 36.0879 19.3164 35.9149C21.679 35.7419 23.9843 35.1043 26.0999 34.0386L26.1225 33.8721Z" fill="#17D4A7"/>
<path d="M34.8795 11.7591C32.8004 15.5378 30.0723 18.9209 26.82 21.7535C26.8657 21.9222 26.8883 22.0963 26.8875 22.2711C26.8853 22.5833 26.815 22.8913 26.6813 23.1734C26.5476 23.4556 26.3538 23.7051 26.1135 23.9046C27.369 27.2526 27.9135 30.3351 27.738 33.125C31.186 30.9116 33.774 27.5862 35.0729 23.7002C36.3718 19.8142 36.3035 15.601 34.8795 11.7591Z" fill="#17D4A7"/>
<path d="M13.752 11.372C13.6091 10.8729 13.5875 10.3467 13.689 9.83753C10.3474 8.67387 6.88154 7.90368 3.36157 7.54254C1.73869 9.80755 0.664901 12.419 0.225195 15.1705C-0.214512 17.922 -0.00808613 20.7381 0.828069 23.396C3.74407 18.2975 8.12255 14.2205 13.752 11.372Z" fill="#17D4A7"/>
<path d="M61.1159 17.417V25.219C60.8091 25.5885 60.3361 25.9897 59.6958 26.4224C59.0561 26.846 58.2309 27.2111 57.2212 27.5176C56.2116 27.8241 54.9904 27.9773 53.5571 27.9773C52.2861 27.9773 51.1277 27.77 50.0821 27.3554C49.0364 26.9317 48.135 26.3142 47.3777 25.5029C46.6295 24.6916 46.0526 23.7 45.647 22.5282C45.2413 21.3472 45.0385 19.9996 45.0385 18.4852V17.2547C45.0385 15.7403 45.2323 14.3926 45.6199 13.2117C46.0165 12.0308 46.5799 11.0347 47.3101 10.2235C48.0403 9.41213 48.9102 8.79465 49.9198 8.37101C50.9294 7.94732 52.0517 7.73547 53.2867 7.73547C54.9994 7.73547 56.4054 8.01494 57.5054 8.57383C58.6053 9.12369 59.4433 9.88994 60.0204 10.8725C60.6063 11.8461 60.9669 12.9638 61.102 14.2258H57.1675C57.0684 13.5588 56.879 12.9774 56.5993 12.4815C56.3201 11.9858 55.9192 11.5982 55.3963 11.3187C54.8822 11.0393 54.2151 10.8995 53.3948 10.8995C52.7188 10.8995 52.1148 11.0393 51.5829 11.3187C51.0601 11.5891 50.6184 11.9903 50.2578 12.5221C49.8972 13.054 49.6223 13.712 49.433 14.4963C49.2437 15.2805 49.149 16.191 49.149 17.2277V18.4852C49.149 19.5128 49.2482 20.4233 49.4465 21.2165C49.6448 22.0008 49.9378 22.6633 50.3254 23.2042C50.7221 23.7361 51.2089 24.1372 51.7858 24.4076C52.3627 24.6781 53.0343 24.8133 53.8005 24.8133C54.4405 24.8133 54.9724 24.7592 55.3963 24.651C55.8289 24.5429 56.1756 24.4122 56.437 24.2589C56.7078 24.0966 56.915 23.9434 57.059 23.7992V20.3106H53.3543V17.417H61.1159ZM68.255 6.93771V27.7069H64.3476V6.93771H68.255ZM70.8514 20.5405V20.2565C70.8514 19.1838 71.0043 18.1967 71.3111 17.2952C71.6174 16.3848 72.0638 15.596 72.6497 14.929C73.2357 14.2619 73.9568 13.7436 74.8131 13.374C75.6693 12.9954 76.6518 12.8061 77.7606 12.8061C78.8694 12.8061 79.8569 12.9954 80.722 13.374C81.5877 13.7436 82.3132 14.2619 82.8992 14.929C83.494 15.596 83.9449 16.3848 84.2511 17.2952C84.558 18.1967 84.7108 19.1838 84.7108 20.2565V20.5405C84.7108 21.6042 84.558 22.5912 84.2511 23.5017C83.9449 24.4031 83.494 25.1919 82.8992 25.868C82.3132 26.5351 81.5921 27.0534 80.7353 27.423C79.8791 27.7926 78.8966 27.9773 77.7878 27.9773C76.679 27.9773 75.692 27.7926 74.8269 27.423C73.9701 27.0534 73.2446 26.5351 72.6497 25.868C72.0638 25.1919 71.6174 24.4031 71.3111 23.5017C71.0043 22.5912 70.8514 21.6042 70.8514 20.5405ZM74.7455 20.2565V20.5405C74.7455 21.1534 74.7998 21.7259 74.9078 22.2577C75.0158 22.7896 75.1875 23.2583 75.4217 23.664C75.6649 24.0606 75.9806 24.3716 76.3683 24.5969C76.7559 24.8223 77.2289 24.935 77.7878 24.935C78.3289 24.935 78.793 24.8223 79.1807 24.5969C79.5684 24.3716 79.8791 24.0606 80.1134 23.664C80.3482 23.2583 80.5193 22.7896 80.6273 22.2577C80.7447 21.7259 80.8035 21.1534 80.8035 20.5405V20.2565C80.8035 19.6616 80.7447 19.1027 80.6273 18.5798C80.5193 18.048 80.3432 17.5792 80.1001 17.1736C79.8658 16.7589 79.5545 16.4344 79.1668 16.2C78.7797 15.9656 78.3106 15.8484 77.7606 15.8484C77.2112 15.8484 76.7421 15.9656 76.3544 16.2C75.9761 16.4344 75.6649 16.7589 75.4217 17.1736C75.1875 17.5792 75.0158 18.048 74.9078 18.5798C74.7998 19.1027 74.7455 19.6616 74.7455 20.2565ZM87.104 6.93771H90.9986V24.3536L90.6065 27.7069H87.104V6.93771ZM100.261 20.243V20.5269C100.261 21.6177 100.144 22.6183 99.9095 23.5287C99.6841 24.4392 99.3324 25.228 98.8544 25.895C98.377 26.5531 97.7816 27.0669 97.0699 27.4365C96.3665 27.7971 95.5374 27.9773 94.5815 27.9773C93.6892 27.9773 92.9139 27.7971 92.2559 27.4365C91.6068 27.0759 91.0618 26.5666 90.6198 25.9086C90.1784 25.2505 89.8223 24.4797 89.5515 23.5964C89.2812 22.7129 89.0785 21.7484 88.9433 20.7027V20.0807C89.0785 19.035 89.2812 18.0705 89.5515 17.1871C89.8223 16.3037 90.1784 15.533 90.6198 14.8749C91.0618 14.2169 91.6068 13.7075 92.2559 13.3469C92.905 12.9864 93.6715 12.8061 94.5549 12.8061C95.5191 12.8061 96.3577 12.9909 97.0699 13.3604C97.791 13.7211 98.3859 14.2349 98.8544 14.9019C99.3324 15.56 99.6841 16.3442 99.9095 17.2547C100.144 18.1561 100.261 19.1522 100.261 20.243ZM96.3665 20.5269V20.243C96.3665 19.648 96.3217 19.0892 96.2314 18.5663C96.15 18.0345 96.006 17.5702 95.7988 17.1736C95.5911 16.7679 95.3076 16.4479 94.947 16.2135C94.5953 15.9791 94.1401 15.8619 93.5812 15.8619C93.0495 15.8619 92.5987 15.9521 92.2287 16.1324C91.8593 16.3127 91.5531 16.5651 91.3094 16.8896C91.0751 17.2142 90.8995 17.6017 90.7821 18.0525C90.6652 18.4942 90.5927 18.981 90.5655 19.5128V21.2842C90.5927 21.9963 90.7101 22.6273 90.9172 23.1772C91.1338 23.718 91.4583 24.1462 91.8909 24.4617C92.3329 24.7682 92.905 24.9215 93.6084 24.9215C94.1578 24.9215 94.6131 24.8133 94.9736 24.5969C95.3347 24.3806 95.6139 24.0741 95.8121 23.6775C96.0193 23.2808 96.1638 22.8166 96.2447 22.2847C96.3261 21.7439 96.3665 21.1579 96.3665 20.5269ZM110.578 24.4076V17.8902C110.578 17.4215 110.501 17.0203 110.348 16.6868C110.195 16.3442 109.956 16.0783 109.631 15.889C109.316 15.6997 108.906 15.6051 108.401 15.6051C107.968 15.6051 107.594 15.6817 107.278 15.8349C106.963 15.9791 106.72 16.191 106.548 16.4705C106.377 16.7409 106.291 17.0609 106.291 17.4305H102.397C102.397 16.8085 102.541 16.2181 102.83 15.6591C103.118 15.1002 103.538 14.609 104.088 14.1853C104.637 13.7526 105.291 13.4146 106.048 13.1711C106.814 12.9278 107.671 12.8061 108.617 12.8061C109.753 12.8061 110.763 12.9954 111.646 13.374C112.529 13.7526 113.223 14.3205 113.729 15.0777C114.242 15.8349 114.499 16.7814 114.499 17.9173V24.1778C114.499 24.9801 114.549 25.6381 114.648 26.152C114.747 26.6567 114.891 27.0984 115.08 27.477V27.7069H111.146C110.956 27.3103 110.812 26.8145 110.713 26.2195C110.623 25.6156 110.578 25.0116 110.578 24.4076ZM111.092 18.7962L111.119 21.0002H108.942C108.428 21.0002 107.982 21.0588 107.603 21.176C107.225 21.2932 106.913 21.4599 106.67 21.6763C106.427 21.8836 106.247 22.127 106.129 22.4065C106.021 22.6859 105.967 22.9924 105.967 23.3259C105.967 23.6594 106.043 23.9614 106.197 24.2319C106.35 24.4933 106.571 24.7006 106.859 24.8539C107.148 24.9981 107.486 25.0702 107.873 25.0702C108.459 25.0702 108.969 24.953 109.401 24.7187C109.834 24.4843 110.168 24.1958 110.402 23.8533C110.645 23.5107 110.772 23.1862 110.781 22.8797L111.808 24.5294C111.664 24.8989 111.465 25.282 111.213 25.6787C110.97 26.0753 110.659 26.4494 110.28 26.801C109.902 27.1435 109.447 27.4275 108.914 27.6528C108.383 27.8692 107.752 27.9773 107.021 27.9773C106.093 27.9773 105.25 27.7926 104.493 27.423C103.745 27.0444 103.15 26.526 102.708 25.868C102.276 25.2009 102.059 24.4437 102.059 23.5964C102.059 22.8301 102.204 22.1495 102.492 21.5546C102.781 20.9597 103.204 20.4593 103.763 20.0537C104.331 19.639 105.039 19.328 105.886 19.1207C106.733 18.9043 107.716 18.7962 108.834 18.7962H111.092ZM121.611 6.93771V27.7069H117.704V6.93771H121.611ZM128.724 15.889V33.3319H124.83V13.0765H128.44L128.724 15.889ZM137.986 20.2295V20.5134C137.986 21.5771 137.86 22.5642 137.608 23.4747C137.364 24.3851 137.004 25.1784 136.526 25.8544C136.048 26.5215 135.453 27.0444 134.741 27.423C134.038 27.7926 133.227 27.9773 132.307 27.9773C131.414 27.9773 130.64 27.7971 129.981 27.4365C129.323 27.0759 128.769 26.5711 128.318 25.9221C127.876 25.264 127.52 24.5023 127.25 23.6369C126.98 22.7715 126.772 21.843 126.628 20.8514V20.1078C126.772 19.0441 126.98 18.0705 127.25 17.1871C127.52 16.2947 127.876 15.5239 128.318 14.8749C128.769 14.2169 129.319 13.7075 129.968 13.3469C130.626 12.9864 131.397 12.8061 132.28 12.8061C133.208 12.8061 134.024 12.9819 134.728 13.3334C135.44 13.685 136.035 14.1898 136.512 14.8479C136.999 15.5059 137.364 16.2902 137.608 17.2006C137.86 18.1111 137.986 19.1207 137.986 20.2295ZM134.078 20.5134V20.2295C134.078 19.6074 134.024 19.035 133.916 18.5122C133.817 17.9804 133.655 17.5161 133.429 17.1195C133.213 16.7228 132.925 16.4163 132.564 16.2C132.213 15.9747 131.784 15.8619 131.279 15.8619C130.748 15.8619 130.292 15.9476 129.914 16.1189C129.544 16.2902 129.242 16.5381 129.008 16.8626C128.773 17.1871 128.598 17.5747 128.481 18.0254C128.363 18.4762 128.291 18.9855 128.264 19.5534V21.4329C128.309 22.1 128.435 22.6994 128.642 23.2313C128.85 23.7541 129.17 24.1688 129.603 24.4753C130.035 24.7818 130.604 24.935 131.306 24.935C131.82 24.935 132.253 24.8223 132.605 24.5969C132.956 24.3626 133.24 24.0426 133.456 23.6369C133.682 23.2313 133.84 22.7625 133.929 22.2307C134.029 21.6988 134.078 21.1264 134.078 20.5134ZM144.517 13.0765V27.7069H140.609V13.0765H144.517ZM140.366 9.26342C140.366 8.69551 140.565 8.22674 140.961 7.85715C141.358 7.48757 141.889 7.30275 142.557 7.30275C143.215 7.30275 143.742 7.48757 144.139 7.85715C144.544 8.22674 144.747 8.69551 144.747 9.26342C144.747 9.83134 144.544 10.3001 144.139 10.6696C143.742 11.0393 143.215 11.224 142.557 11.224C141.889 11.224 141.358 11.0393 140.961 10.6696C140.565 10.3001 140.366 9.83134 140.366 9.26342ZM151.548 16.2V27.7069H147.654V13.0765H151.305L151.548 16.2ZM150.981 19.8779H149.926C149.926 18.7962 150.065 17.8226 150.345 16.9572C150.625 16.0828 151.017 15.3391 151.521 14.7262C152.026 14.1042 152.626 13.6309 153.32 13.3064C154.023 12.9729 154.807 12.8061 155.672 12.8061C156.357 12.8061 156.984 12.9052 157.552 13.1036C158.12 13.3019 158.607 13.6174 159.012 14.0501C159.427 14.4828 159.743 15.0552 159.959 15.7674C160.184 16.4795 160.297 17.3494 160.297 18.377V27.7069H156.376V18.3635C156.376 17.7145 156.285 17.2096 156.105 16.8491C155.925 16.4885 155.659 16.2361 155.307 16.0919C154.965 15.9386 154.541 15.8619 154.036 15.8619C153.513 15.8619 153.058 15.9656 152.671 16.173C152.292 16.3803 151.977 16.6688 151.724 17.0384C151.481 17.3989 151.296 17.8226 151.17 18.3094C151.043 18.7962 150.981 19.319 150.981 19.8779ZM172.52 13.0765H176.049V27.2202C176.049 28.5543 175.752 29.6856 175.157 30.6141C174.571 31.5516 173.751 32.2592 172.696 32.737C171.641 33.2238 170.416 33.4672 169.018 33.4672C168.405 33.4672 167.756 33.386 167.071 33.2238C166.395 33.0615 165.746 32.8091 165.124 32.4665C164.511 32.124 163.997 31.6913 163.582 31.1685L165.3 28.8698C165.751 29.3926 166.274 29.7983 166.868 30.0867C167.463 30.3842 168.121 30.5329 168.842 30.5329C169.546 30.5329 170.14 30.4022 170.627 30.1408C171.114 29.8884 171.489 29.5143 171.75 29.0185C172.011 28.5317 172.142 27.9413 172.142 27.2472V16.4569L172.52 13.0765ZM162.677 20.5675V20.2835C162.677 19.1658 162.812 18.1517 163.082 17.2412C163.362 16.3217 163.754 15.533 164.259 14.8749C164.773 14.2169 165.395 13.7075 166.125 13.3469C166.855 12.9864 167.68 12.8061 168.599 12.8061C169.573 12.8061 170.389 12.9864 171.047 13.3469C171.705 13.7075 172.246 14.2213 172.669 14.8884C173.093 15.5465 173.422 16.3262 173.656 17.2277C173.899 18.1201 174.089 19.0981 174.224 20.1618V20.7839C174.089 21.8025 173.886 22.749 173.616 23.6234C173.345 24.4978 172.989 25.264 172.548 25.9221C172.106 26.5711 171.556 27.0759 170.898 27.4365C170.249 27.7971 169.474 27.9773 168.572 27.9773C167.671 27.9773 166.855 27.7926 166.125 27.423C165.403 27.0534 164.786 26.5351 164.272 25.868C163.759 25.2009 163.362 24.4167 163.082 23.5152C162.812 22.6138 162.677 21.6312 162.677 20.5675ZM166.571 20.2835V20.5675C166.571 21.1714 166.63 21.7349 166.747 22.2577C166.864 22.7805 167.044 23.2448 167.288 23.6504C167.54 24.0471 167.851 24.3581 168.22 24.5834C168.599 24.7998 169.046 24.908 169.559 24.908C170.271 24.908 170.853 24.7592 171.304 24.4617C171.754 24.1552 172.092 23.7361 172.318 23.2042C172.543 22.6724 172.674 22.0594 172.71 21.3653V19.5939C172.692 19.026 172.615 18.5167 172.48 18.066C172.345 17.6063 172.155 17.2142 171.912 16.8896C171.669 16.5651 171.353 16.3127 170.966 16.1324C170.578 15.9521 170.118 15.8619 169.586 15.8619C169.073 15.8619 168.626 15.9791 168.247 16.2135C167.878 16.4389 167.567 16.7499 167.315 17.1465C167.071 17.5431 166.887 18.0119 166.76 18.5528C166.634 19.0846 166.571 19.6616 166.571 20.2835Z" fill="#17233A"/>
</g>
<defs>
<clipPath id="clip0_573_5860">
<rect width="177.785" height="36" fill="white"/>
</clipPath>
</defs>
</svg>
