<svg width="21" height="17" viewBox="0 0 21 17" fill="none" xmlns="http://www.w3.org/2000/svg">
<path d="M10.75 2C11.3023 2 11.75 1.55228 11.75 1C11.75 0.447715 11.3023 0 10.75 0C10.1977 0 9.75 0.447715 9.75 1C9.75 1.55228 10.1977 2 10.75 2Z" fill="#17D4A7"/>
<path d="M10.75 4.5C11.3023 4.5 11.75 4.05228 11.75 3.5C11.75 2.94771 11.3023 2.5 10.75 2.5C10.1977 2.5 9.75 2.94771 9.75 3.5C9.75 4.05228 10.1977 4.5 10.75 4.5Z" fill="#17D4A7"/>
<path d="M9.25 3.5C9.25 4.05228 8.80228 4.5 8.25 4.5C7.69771 4.5 7.25 4.05228 7.25 3.5C7.25 2.94771 7.69771 2.5 8.25 2.5C8.80228 2.5 9.25 2.94771 9.25 3.5Z" fill="#17D4A7"/>
<path d="M5.74999 4.5C6.30228 4.5 6.74999 4.05228 6.74999 3.5C6.74999 2.94771 6.30228 2.5 5.74999 2.5C5.19771 2.5 4.74999 2.94771 4.74999 3.5C4.74999 4.05228 5.19771 4.5 5.74999 4.5Z" fill="#17D4A7"/>
<path d="M11.75 6C11.75 6.55228 11.3023 7 10.75 7C10.1977 7 9.75 6.55228 9.75 6C9.75 5.44771 10.1977 5 10.75 5C11.3023 5 11.75 5.44771 11.75 6Z" fill="#17D4A7"/>
<path d="M8.25 7C8.80228 7 9.25 6.55228 9.25 6C9.25 5.44771 8.80228 5 8.25 5C7.69771 5 7.25 5.44771 7.25 6C7.25 6.55228 7.69771 7 8.25 7Z" fill="#17D4A7"/>
<path d="M6.74999 6C6.74999 6.55228 6.30228 7 5.74999 7C5.19771 7 4.74999 6.55228 4.74999 6C4.74999 5.44771 5.19771 5 5.74999 5C6.30228 5 6.74999 5.44771 6.74999 6Z" fill="#17D4A7"/>
<path d="M3.25 7C3.80228 7 4.25 6.55228 4.25 6C4.25 5.44771 3.80228 5 3.25 5C2.69772 5 2.25 5.44771 2.25 6C2.25 6.55228 2.69772 7 3.25 7Z" fill="#17D4A7"/>
<path fill-rule="evenodd" clip-rule="evenodd" d="M15.5418 4.85688L14.9987 4.53101L14.5865 5.0119L15.1559 5.5C14.5865 5.0119 14.5856 5.01297 14.5856 5.01297L14.5846 5.01418L14.5821 5.01704L14.5759 5.02446L14.5582 5.04608C14.5442 5.06346 14.5258 5.08679 14.5039 5.11576C14.4603 5.17361 14.4023 5.25453 14.3374 5.35598C14.2084 5.55757 14.0471 5.84756 13.9172 6.2047C13.7273 6.727 13.5997 7.41174 13.7539 8.1659C13.7244 8.16657 13.6934 8.16693 13.661 8.16693H0.385906L0.315223 8.83842C0.0883814 10.9934 0.476866 12.4567 1.12494 13.4612C1.77002 14.4611 2.6125 14.9091 3.07483 15.1403C4.03912 15.6224 7.91753 16.9886 12.0436 15.1548C14.9718 13.8534 16.3668 11.7099 16.8267 10.3861C17.0592 10.3142 17.366 10.2048 17.6952 10.0473C18.3709 9.7242 19.2626 9.1403 19.6894 8.14458L20.0104 7.39538L19.2362 7.13732L19.2348 7.13685L19.2306 7.13546L19.2167 7.13093L19.1679 7.11536C19.1265 7.10231 19.0674 7.08415 18.9938 7.0626C18.8468 7.01958 18.6401 6.96256 18.3976 6.90552C18.0262 6.81813 17.5463 6.72466 17.0587 6.68804C16.9469 6.52588 16.8006 6.31666 16.6439 6.10067C16.4756 5.86863 16.2895 5.62084 16.1183 5.41327C16.0331 5.30985 15.9451 5.20865 15.8604 5.12142C15.7872 5.04603 15.6744 4.93643 15.5418 4.85688ZM19 7.84914C19.2372 7.13763 19.2362 7.13732 19.2362 7.13732L19 7.84914ZM15.3997 8.36796C15.1095 7.78756 15.1538 7.24376 15.2978 6.80164L16.2495 8.17202H16.6509C16.9855 8.17202 17.361 8.22312 17.7098 8.29134C17.5114 8.44686 17.2848 8.58088 17.048 8.69414C16.7839 8.82049 16.5344 8.90768 16.3509 8.96301C16.2598 8.99048 16.1867 9.00958 16.1385 9.02139C16.1354 9.02213 16.1325 9.02284 16.1297 9.02352C16.11 9.02828 16.0952 9.03164 16.0859 9.03369L16.0759 9.03589L16.0746 9.03614L15.5936 9.13234L15.4904 9.61402C15.3265 10.3788 14.288 12.5158 11.4344 13.7841C7.87241 15.3672 4.48983 14.1707 3.74565 13.7986C3.35375 13.6027 2.8081 13.3032 2.38539 12.648C2.01773 12.0782 1.69668 11.1638 1.75732 9.66693H13.661C14.1484 9.66693 14.4986 9.60627 14.7524 9.52166C14.8801 9.47911 14.9839 9.4303 15.068 9.37986C15.11 9.35468 15.1466 9.32934 15.1784 9.30456C15.1944 9.29219 15.209 9.28002 15.2224 9.26815C15.2292 9.26221 15.2356 9.25637 15.2417 9.25062L15.2507 9.24208L15.255 9.23787L15.2571 9.23578L15.2581 9.23474C15.2581 9.23474 15.2592 9.2337 14.7288 8.70337L15.2592 9.2337L15.6414 8.85146L15.3997 8.36796ZM15.2978 6.80164L16.0263 7.83724L16.0241 7.83401L16.0151 7.8206L15.9797 7.76802C15.9488 7.72229 15.9041 7.65637 15.8492 7.57646C15.7391 7.41626 15.5895 7.2016 15.4298 6.98152C15.386 6.92108 15.3418 6.86083 15.2978 6.80164Z" fill="#17D4A7"/>
</svg>
