<svg width="14" height="14" viewBox="0 0 14 14" fill="none" xmlns="http://www.w3.org/2000/svg">
<path fill-rule="evenodd" clip-rule="evenodd" d="M12.1714 3.95568C11.1278 2.18674 9.2025 1 7 1C3.68629 1 1 3.68629 1 7C1 10.3137 3.68629 13 7 13C10.3137 13 13 10.3137 13 7C13 5.93406 12.722 4.93305 12.2346 4.06548C12.2362 4.02649 12.2362 3.98881 12.2344 3.95263L12.1714 3.95568ZM11.9091 7C11.9091 8.24066 11.4489 9.37382 10.6898 10.2381C10.6698 10.0433 10.6451 9.85441 10.617 9.67583C10.5761 9.41585 10.5271 9.17325 10.4728 8.9622C10.6838 8.78711 10.8182 8.52289 10.8182 8.22727C10.8182 8.0468 10.7681 7.87802 10.6811 7.73408C11.0846 7.1096 11.4343 6.44552 11.6981 5.84611C11.7141 5.8097 11.7298 5.77348 11.7452 5.73747C11.8521 6.14033 11.9091 6.56351 11.9091 7ZM9.9989 7.28224C10.374 6.70068 10.7019 6.07855 10.9492 5.51662C11.0958 5.18321 11.2119 4.87604 11.2922 4.61565C11.2512 4.54211 11.2085 4.46974 11.1639 4.39859C9.97552 4.37338 8.92514 4.48906 7.999 4.69927C7.99966 4.716 8 4.73282 8 4.74972C8 4.90098 7.97313 5.04597 7.92391 5.18017C8.09098 5.34842 8.26556 5.53645 8.44254 5.73897C8.84147 6.19547 9.26002 6.73407 9.63876 7.29937C9.71087 7.28195 9.78617 7.27273 9.86364 7.27273C9.90955 7.27273 9.95471 7.27597 9.9989 7.28224ZM9.00108 7.81791C8.63339 7.2624 8.22028 6.72801 7.82646 6.27737C7.6801 6.10989 7.53751 5.95525 7.40208 5.81637C7.21224 5.93268 6.98895 5.99972 6.75 5.99972C6.33528 5.99972 5.96773 5.79776 5.74035 5.48682C3.94638 6.36093 2.86725 7.56642 2.27892 8.35019C2.28689 8.37809 2.29509 8.40589 2.30353 8.43358C3.23253 8.81508 4.04383 9.05459 4.75311 9.18845C4.88542 9.07136 5.05939 9.00028 5.24996 9.00028C5.50448 9.00028 5.72938 9.12706 5.86497 9.32091C6.37375 9.34271 6.81524 9.30307 7.19903 9.22431C7.94996 9.0702 8.50484 8.76145 8.93109 8.43197C8.91668 8.36603 8.90909 8.29754 8.90909 8.22727C8.90909 8.08077 8.9421 7.94197 9.00108 7.81791ZM9.43199 9.07887C9.50918 9.11808 9.59242 9.1471 9.67994 9.16416C9.7265 9.34483 9.77078 9.56183 9.80877 9.80309C9.86422 10.1553 9.90481 10.5498 9.9208 10.946C9.1046 11.5512 8.0941 11.9091 7 11.9091C5.19622 11.9091 3.61967 10.9363 2.76639 9.48664C3.40469 9.71262 3.99295 9.87359 4.53573 9.97979C4.63268 10.2817 4.9158 10.5003 5.24996 10.5003C5.52113 10.5003 5.75868 10.3564 5.89041 10.1408C6.43601 10.1597 6.92459 10.1159 7.36352 10.0258C8.26474 9.84083 8.9313 9.46599 9.43199 9.07887ZM10.522 3.58023C9.47719 3.60182 8.53724 3.72875 7.69334 3.92957C7.46417 3.6662 7.12653 3.49972 6.75 3.49972C6.33051 3.49972 5.95928 3.70636 5.73255 4.0234C4.89075 3.75715 4.09009 3.64038 3.45494 3.60415C4.3485 2.67157 5.60644 2.09091 7 2.09091C8.38161 2.09091 9.62991 2.66166 10.522 3.58023ZM5.35583 4.76359C4.33529 4.45929 3.3955 4.39349 2.82783 4.4118C2.3607 5.16323 2.09091 6.05011 2.09091 7C2.09091 7.09142 2.09341 7.18225 2.09834 7.27244C2.78786 6.4779 3.83681 5.50965 5.35583 4.76359Z" fill="#F35634"/>
</svg>
