<svg width="12" height="12" viewBox="0 0 12 12" fill="none" xmlns="http://www.w3.org/2000/svg">
<path fill-rule="evenodd" clip-rule="evenodd" d="M11.1714 2.95568C10.1278 1.18674 8.2025 0 6 0C2.68629 0 0 2.68629 0 6C0 9.31371 2.68629 12 6 12C9.31371 12 12 9.31371 12 6C12 4.93406 11.722 3.93305 11.2346 3.06548C11.2362 3.02649 11.2362 2.98881 11.2344 2.95263L11.1714 2.95568ZM10.9091 6C10.9091 7.24066 10.4489 8.37382 9.6898 9.23808C9.66976 9.04326 9.64511 8.85441 9.61699 8.67583C9.57606 8.41585 9.5271 8.17325 9.4728 7.9622C9.6838 7.78711 9.81818 7.52289 9.81818 7.22727C9.81818 7.0468 9.76809 6.87802 9.68106 6.73408C10.0846 6.1096 10.4343 5.44552 10.6981 4.84611C10.7141 4.8097 10.7298 4.77348 10.7452 4.73747C10.8521 5.14033 10.9091 5.56351 10.9091 6ZM8.9989 6.28224C9.37401 5.70068 9.70192 5.07855 9.94916 4.51662C10.0958 4.18321 10.2119 3.87604 10.2922 3.61565C10.2512 3.54211 10.2085 3.46974 10.1639 3.39859C8.97552 3.37338 7.92514 3.48906 6.999 3.69927C6.99966 3.716 7 3.73282 7 3.74972C7 3.90098 6.97313 4.04597 6.92391 4.18017C7.09098 4.34842 7.26556 4.53645 7.44254 4.73897C7.84147 5.19547 8.26002 5.73407 8.63876 6.29937C8.71087 6.28195 8.78617 6.27273 8.86364 6.27273C8.90955 6.27273 8.95471 6.27597 8.9989 6.28224ZM8.00108 6.81791C7.63339 6.2624 7.22028 5.72801 6.82646 5.27737C6.6801 5.10989 6.53751 4.95525 6.40208 4.81637C6.21224 4.93268 5.98895 4.99972 5.75 4.99972C5.33528 4.99972 4.96773 4.79776 4.74035 4.48682C2.94638 5.36093 1.86725 6.56642 1.27892 7.35019C1.28689 7.37809 1.29509 7.40589 1.30353 7.43358C2.23253 7.81508 3.04383 8.05459 3.75311 8.18845C3.88542 8.07136 4.05939 8.00028 4.24996 8.00028C4.50448 8.00028 4.72938 8.12706 4.86497 8.32091C5.37375 8.34271 5.81524 8.30307 6.19903 8.22431C6.94996 8.0702 7.50484 7.76145 7.93109 7.43197C7.91668 7.36603 7.90909 7.29754 7.90909 7.22727C7.90909 7.08077 7.9421 6.94197 8.00108 6.81791ZM8.43199 8.07887C8.50918 8.11808 8.59242 8.1471 8.67994 8.16416C8.7265 8.34483 8.77078 8.56183 8.80877 8.80309C8.86422 9.15527 8.90481 9.54978 8.9208 9.94603C8.1046 10.5512 7.0941 10.9091 6 10.9091C4.19622 10.9091 2.61967 9.93625 1.76639 8.48664C2.40469 8.71262 2.99295 8.87359 3.53573 8.97979C3.63268 9.28174 3.9158 9.50028 4.24996 9.50028C4.52113 9.50028 4.75868 9.35637 4.89041 9.14076C5.43601 9.15971 5.92459 9.11586 6.36352 9.02578C7.26474 8.84083 7.9313 8.46599 8.43199 8.07887ZM9.52199 2.58023C8.47719 2.60182 7.53724 2.72875 6.69334 2.92957C6.46417 2.6662 6.12653 2.49972 5.75 2.49972C5.33051 2.49972 4.95928 2.70636 4.73255 3.0234C3.89075 2.75715 3.09009 2.64038 2.45494 2.60415C3.3485 1.67157 4.60644 1.09091 6 1.09091C7.38161 1.09091 8.62991 1.66166 9.52199 2.58023ZM4.35583 3.76359C3.33529 3.45929 2.3955 3.39349 1.82783 3.4118C1.3607 4.16323 1.09091 5.05011 1.09091 6C1.09091 6.09142 1.09341 6.18225 1.09834 6.27244C1.78786 5.4779 2.83681 4.50965 4.35583 3.76359Z" fill="#F35634"/>
</svg>
