<svg width="14" height="14" viewBox="0 0 14 14" fill="none" xmlns="http://www.w3.org/2000/svg">
<path d="M2.78571 8.54286C3.19598 8.54286 3.52857 8.21027 3.52857 7.8C3.52857 7.38973 3.19598 7.05714 2.78571 7.05714C2.37545 7.05714 2.04286 7.38973 2.04286 7.8C2.04286 8.21027 2.37545 8.54286 2.78571 8.54286Z" fill="#212121"/>
<path d="M5.01429 9.47143C5.42455 9.47143 5.75714 9.13884 5.75714 8.72857C5.75714 8.3183 5.42455 7.98571 5.01429 7.98571C4.60402 7.98571 4.27143 8.3183 4.27143 8.72857C4.27143 9.13884 4.60402 9.47143 5.01429 9.47143Z" fill="#212121"/>
<path fill-rule="evenodd" clip-rule="evenodd" d="M6.76964 0.062191C6.93362 -0.0225547 7.12893 -0.0205842 7.29116 0.0674529L13.4514 3.41031C13.631 3.50776 13.7429 3.69568 13.7429 3.9V9.1C13.7429 9.30432 13.631 9.49224 13.4514 9.58969L7.29116 12.9325C7.12893 13.0206 6.93362 13.0226 6.76964 12.9378L0.301348 9.59495C0.116253 9.49929 0 9.30835 0 9.1V3.9C0 3.69165 0.116253 3.50071 0.301348 3.40505L6.76964 0.062191ZM1.11429 4.81508L6.46829 7.58207V11.5278L1.11429 8.76079V4.81508ZM7.58258 11.5066L12.6286 8.76845V4.83622L7.58258 7.57441V11.5066ZM7.01908 6.61242L12.0176 3.9L7.01908 1.18758L1.77065 3.9L7.01908 6.61242Z" fill="#212121"/>
</svg>
